name C:\Users\u0150099\Documents\master_thesis\3dpredictsim\Results\debug\Fal_s1_mtp_sc_Sv80_MTPm_k17_d05_ig21.mot
datacolumns 126
datarows 4
range 0.00000000 0.03277832
endheader
time	pelvis_tilt	pelvis_list	pelvis_rotation	pelvis_tx	pelvis_ty	pelvis_tz	hip_flexion_l	hip_adduction_l	hip_rotation_l	hip_flexion_r	hip_adduction_r	hip_rotation_r	knee_angle_l	knee_angle_r	ankle_angle_l	ankle_angle_r	subtalar_angle_l	subtalar_angle_r	mtp_angle_l	mtp_angle_r	lumbar_extension	lumbar_bending	lumbar_rotation	arm_flex_l	arm_add_l	arm_rot_l	arm_flex_r	arm_add_r	arm_rot_r	elbow_flex_l	elbow_flex_r	pro_sup_l	pro_sup_r	glut_med1_l/activation	glut_med2_l/activation	glut_med3_l/activation	glut_min1_l/activation	glut_min2_l/activation	glut_min3_l/activation	semimem_l/activation	semiten_l/activation	bifemlh_l/activation	bifemsh_l/activation	sar_l/activation	add_long_l/activation	add_brev_l/activation	add_mag1_l/activation	add_mag2_l/activation	add_mag3_l/activation	tfl_l/activation	pect_l/activation	grac_l/activation	glut_max1_l/activation	glut_max2_l/activation	glut_max3_l/activation	iliacus_l/activation	psoas_l/activation	quad_fem_l/activation	gem_l/activation	peri_l/activation	rect_fem_l/activation	vas_med_l/activation	vas_int_l/activation	vas_lat_l/activation	med_gas_l/activation	lat_gas_l/activation	soleus_l/activation	tib_post_l/activation	flex_dig_l/activation	flex_hal_l/activation	tib_ant_l/activation	per_brev_l/activation	per_long_l/activation	per_tert_l/activation	ext_dig_l/activation	ext_hal_l/activation	ercspn_l/activation	intobl_l/activation	extobl_l/activation	glut_med1_r/activation	glut_med2_r/activation	glut_med3_r/activation	glut_min1_r/activation	glut_min2_r/activation	glut_min3_r/activation	semimem_r/activation	semiten_r/activation	bifemlh_r/activation	bifemsh_r/activation	sar_r/activation	add_long_r/activation	add_brev_r/activation	add_mag1_r/activation	add_mag2_r/activation	add_mag3_r/activation	tfl_r/activation	pect_r/activation	grac_r/activation	glut_max1_r/activation	glut_max2_r/activation	glut_max3_r/activation	iliacus_r/activation	psoas_r/activation	quad_fem_r/activation	gem_r/activation	peri_r/activation	rect_fem_r/activation	vas_med_r/activation	vas_int_r/activation	vas_lat_r/activation	med_gas_r/activation	lat_gas_r/activation	soleus_r/activation	tib_post_r/activation	flex_dig_r/activation	flex_hal_r/activation	tib_ant_r/activation	per_brev_r/activation	per_long_r/activation	per_tert_r/activation	ext_dig_r/activation	ext_hal_r/activation	ercspn_r/activation	intobl_r/activation	extobl_r/activation	
          0.00000000	         -2.93017650	         -2.45078136	          5.40966076	          0.00000000	          0.91192120	         -0.00455095	        -17.64647736	         -1.04241907	          7.33051397	         29.21338550	          3.28600138	         -3.16300734	         -5.70931487	         -8.24948275	          1.97453671	          6.05464989	          9.65849337	         -3.34225635	         21.74425035	          3.82620168	         -3.72261553	          1.23564624	         -2.08693620	          8.67091154	        -13.61065539	         19.38771526	         -8.80194345	        -13.54056996	          5.28183742	         38.57729295	         18.36338849	         86.51662706	         86.51662706	          0.24550841	          0.10518416	          0.08259435	          0.35128473	          0.23097711	          0.13041048	          0.05000080	          0.05000018	          0.05000013	          0.08259120	          0.12227628	          0.05000077	          0.05000010	          0.05000015	          0.05000039	          0.05000029	          0.64295048	          0.05000137	          0.05000039	          0.05000386	          0.05000116	          0.05000049	          0.45651627	          0.77166178	          0.05000010	          0.05000092	          0.06574332	          0.31835604	          0.05000022	          0.05000021	          0.05000021	          0.29744486	          0.40860186	          0.33203570	          0.33205557	          0.61340102	          0.56533437	          0.05509579	          0.05794838	          0.09082112	          0.05000016	          0.05000004	          0.05911960	          0.05000000	          0.05000000	          0.05000001	          0.06538330	          0.05000042	          0.05000010	          0.05000027	          0.05000033	          0.05000172	          0.27202620	          0.06479404	          0.31175577	          0.05000160	          0.05000169	          0.14767321	          0.14143801	          0.15768250	          0.16717491	          0.14671378	          0.05000083	          0.05257747	          0.13284916	          0.05910511	          0.07101931	          0.09929520	          0.05000012	          0.05000013	          0.16799764	          0.05000039	          0.05000042	          0.05000010	          0.06147336	          0.06259185	          0.05243091	          0.05000150	          0.05000134	          0.05910508	          0.05408682	          0.05000067	          0.05000295	          0.42004865	          0.32236140	          0.17128845	          0.17578634	          0.38826151	          0.17553164	          0.08280524	          0.08546571	          0.09763122	
          0.01092611	         -2.92790579	         -2.60724208	          5.72774067	          0.01737446	          0.91088420	         -0.00418083	        -17.43036434	         -1.40094213	          7.21631273	         28.65162874	          3.74503029	         -3.03705054	         -7.86116798	         -7.98172958	          1.20196019	          5.66576746	         10.52142895	         -3.65407169	         22.72874674	          3.95337034	         -3.54258429	          1.47708793	         -2.22564375	          8.38613522	        -13.55959106	         19.32722470	         -9.76070580	        -13.48640375	          4.94030939	         39.95127578	         18.01901687	         86.51662706	         86.51662706	          0.20768813	          0.08898065	          0.06987078	          0.29716973	          0.19539534	          0.11032089	          0.05000061	          0.05000013	          0.05000010	          0.06986811	          0.10343982	          0.14074723	          0.12614815	          0.05000082	          0.05000203	          0.05000045	          0.57765262	          0.14551980	          0.05000732	          0.05000305	          0.05000143	          0.05000078	          0.38619038	          0.72912524	          0.05000830	          0.05000103	          0.05561568	          0.30484684	          0.07557224	          0.07691533	          0.05841072	          0.25162374	          0.34565713	          0.28088591	          0.32038812	          0.62508899	          0.56362869	          0.05000001	          0.05000035	          0.08837331	          0.05000008	          0.05000002	          0.05001230	          0.05475259	          0.05000003	          0.05000002	          0.05910499	          0.05000692	          0.28719009	          0.05910509	          0.05910507	          0.05000120	          0.25197052	          0.05481271	          0.28090652	          0.05000010	          0.05000025	          0.17559071	          0.36883665	          0.26575259	          0.23844834	          0.15854096	          0.05000008	          0.09761381	          0.12670482	          0.05000030	          0.06007896	          0.21081366	          0.05910484	          0.05000058	          0.14211796	          0.22616280	          0.10672626	          0.05185267	          0.12263184	          0.12993616	          0.10147055	          0.05000001	          0.05000004	          0.05000000	          0.05000002	          0.05910512	          0.05000058	          0.52867649	          0.27270278	          0.14490174	          0.45009476	          0.42554924	          0.17549195	          0.07004917	          0.07229979	          0.08259122	
          0.02185221	         -2.92131659	         -2.76143162	          6.01921885	          0.03505551	          0.90988024	         -0.00379244	        -17.10978886	         -1.75237700	          7.09165419	         28.04238108	          4.16620716	         -2.86832772	        -10.18398741	         -8.33652616	          0.21828643	          4.99896027	         11.37473557	         -3.94490196	         23.61131198	          4.16747036	         -3.34111350	          1.71773437	         -2.35425564	          7.99348226	        -13.51044842	         19.18616105	        -10.72572296	        -13.45539861	          4.90978380	         41.34912094	         17.68632839	         86.51662706	         86.51662706	          0.17569399	          0.07527328	          0.05910727	          0.25139111	          0.16529490	          0.09332608	          0.05000495	          0.05000039	          0.05000050	          0.05910501	          0.08750508	          0.21364022	          0.13786483	          0.20568086	          0.06985713	          0.12346766	          0.53810786	          0.12310327	          0.05000071	          0.05000562	          0.05000557	          0.05910173	          0.32669811	          0.67279558	          0.05000034	          0.05910342	          0.05910493	          0.25788552	          0.13642678	          0.13642678	          0.13642634	          0.21286132	          0.29240896	          0.23761568	          0.29385790	          0.58971073	          0.52879158	          0.05000001	          0.05000005	          0.09389441	          0.05000005	          0.05000001	          0.05000007	          0.08683006	          0.06927186	          0.05092356	          0.05000000	          0.05000004	          0.24294890	          0.05000003	          0.05000004	          0.05000007	          0.21315473	          0.07615644	          0.23763314	          0.05000037	          0.05000050	          0.14854122	          0.39525780	          0.43563064	          0.31639118	          0.18500793	          0.05000025	          0.08257750	          0.21928507	          0.12263626	          0.12819071	          0.17834990	          0.05000003	          0.05000009	          0.49881368	          0.19132264	          0.09028520	          0.05000023	          0.10374062	          0.10991972	          0.08583919	          0.06116030	          0.06986795	          0.05258021	          0.05721452	          0.05000009	          0.05000017	          0.44723446	          0.34545382	          0.17414492	          0.38075846	          0.44564326	          0.22816819	          0.05925816	          0.06116208	          0.06986813	
          0.03277832	         -2.91090762	         -2.92316900	          6.27941273	          0.05292955	          0.90891582	         -0.00340736	        -16.69350433	         -2.10115099	          6.94989037	         27.36239391	          4.49081820	         -2.66828838	        -12.63521343	         -9.02411825	         -1.01047384	          4.37000189	         12.17807238	         -4.24596302	         24.34846122	          4.30582984	         -3.12604542	          1.96486937	         -2.46913949	          7.51307994	        -13.46934241	         19.01240939	        -11.66979627	        -13.44970857	          5.14773920	         42.76818057	         17.34790598	         86.51662706	         86.51662706	          0.24041280	          0.06367751	          0.05000188	          0.29540087	          0.13983143	          0.07894930	          0.05000119	          0.05000014	          0.05000013	          0.05000009	          0.07402511	          0.18616556	          0.22142089	          0.17399599	          0.05909634	          0.10444778	          0.60106621	          0.10415215	          0.05000099	          0.05000351	          0.05000190	          0.05000124	          0.27637057	          0.62178495	          0.05000038	          0.05000062	          0.05000009	          0.21815849	          0.11541041	          0.11541041	          0.11541003	          0.18007022	          0.24736362	          0.20101119	          0.25188986	          0.49886674	          0.44733386	          0.05000001	          0.06366395	          0.11964316	          0.05000005	          0.05000001	          0.05000008	          0.08096043	          0.05860059	          0.05000002	          0.30844190	          0.29445914	          0.39325066	          0.45034830	          0.23649413	          0.14822477	          0.18031852	          0.09869541	          0.20102601	          0.06247225	          0.05000060	          0.12565862	          0.33436878	          0.36852223	          0.26765160	          0.20432485	          0.05000023	          0.06985790	          0.18550481	          0.20216347	          0.16612570	          0.18333423	          0.05058508	          0.05000031	          0.42197192	          0.16184965	          0.15310364	          0.05000005	          0.08775953	          0.09298675	          0.07261580	          0.05173889	          0.05910497	          0.05338323	          0.05069653	          0.05424220	          0.05002643	          0.56242987	          0.29224087	          0.15164740	          0.59141076	          0.47397279	          0.19301914	          0.08516030	          0.09763110	          0.05910503	
